<?xml version="1.0" encoding="utf-8"?>
<!-- Generator: Adobe Illustrator 19.0.1, SVG Export Plug-In . SVG Version: 6.00 Build 0)  -->
<svg version="1.1" id="Layer_1" xmlns="http://www.w3.org/2000/svg" xmlns:xlink="http://www.w3.org/1999/xlink" x="0px" y="0px"
	 viewBox="0 0 128 128" style="enable-background:new 0 0 128 128;" xml:space="preserve">
<style type="text/css">
	.st0{fill:#FFFFFF;}
</style>
<g>
	<path class="st0" d="M64,0c5.9,0,11.5,0.8,17,2.3C86.4,3.8,91.6,6,96.3,8.7c4.7,2.8,9.1,6.1,13,10c3.9,3.9,7.2,8.2,10,13
		c2.8,4.7,4.9,9.9,6.4,15.3c1.5,5.4,2.3,11.1,2.3,17c0,5.9-0.8,11.5-2.3,17c-1.5,5.4-3.7,10.6-6.4,15.3c-2.8,4.7-6.1,9.1-10,13
		c-3.9,3.9-8.2,7.2-13,10c-4.7,2.8-9.9,4.9-15.3,6.4c-5.4,1.5-11.1,2.3-17,2.3c-5.9,0-11.5-0.8-17-2.3c-5.4-1.5-10.6-3.7-15.3-6.4
		c-4.7-2.8-9.1-6.1-13-10c-3.9-3.9-7.2-8.2-10-13C6,91.6,3.8,86.5,2.3,81C0.8,75.6,0,70,0,64c0-5.9,0.8-11.5,2.3-17
		C3.8,41.6,6,36.4,8.7,31.7s6.1-9.1,10-13s8.2-7.2,13-10C36.4,6,41.5,3.8,47,2.3C52.4,0.8,58.1,0,64,0z M64,119.7
		c5.1,0,10-0.7,14.8-2c4.7-1.4,9.2-3.2,13.3-5.6s7.9-5.4,11.3-8.7c3.4-3.4,6.3-7.1,8.7-11.3c2.4-4.1,4.4-8.6,5.6-13.3
		c1.4-4.7,2-9.7,2-14.8c0-5.1-0.7-10-2-14.8c-1.4-4.7-3.2-9.2-5.6-13.3c-2.4-4.1-5.4-7.9-8.7-11.3c-3.4-3.4-7.1-6.3-11.3-8.7
		c-4.1-2.4-8.6-4.4-13.3-5.6c-4.7-1.4-9.7-2-14.8-2s-10,0.7-14.8,2c-4.7,1.4-9.2,3.2-13.3,5.6s-7.9,5.4-11.3,8.7
		c-3.4,3.4-6.3,7.1-8.7,11.3c-2.4,4.1-4.4,8.6-5.6,13.3c-1.4,4.7-2,9.7-2,14.8c0,5.2,0.7,10,2,14.8c1.4,4.7,3.2,9.2,5.6,13.3
		s5.4,7.9,8.7,11.3c3.4,3.4,7.1,6.3,11.3,8.7s8.6,4.4,13.3,5.6C53.9,119,58.8,119.7,64,119.7z M93.1,37.1l5.6,5.6L52.1,89.4
		L29.3,66.6l5.6-5.6l17.1,17.1L93.1,37.1z"/>
</g>
</svg>
